HIERARCHY
ROOT Hips
{
	OFFSET	0.00	0.00	0.00
	CHANNELS 6 Xposition Yposition Zposition Zrotation Xrotation Yrotation
	JOINT LeftUpLeg
	{
		OFFSET	 0.126116	-0.065224	 0.014019
		CHANNELS 3 Zrotation Xrotation Yrotation
		JOINT LeftLeg
		{
			OFFSET	 0.000000	 0.569914	 0.000000
			CHANNELS 3 Zrotation Xrotation Yrotation
			JOINT LeftFoot
			{
				OFFSET	 0.000000	 0.544423	 0.000000
				CHANNELS 3 Zrotation Xrotation Yrotation
				JOINT LeftToeBase
				{
					OFFSET	 0.000000	 0.207117	 0.000000
					CHANNELS 3 Zrotation Xrotation Yrotation
					End Site
					{
						OFFSET	 0.000000	 0.207117	 0.000000
					}
				}
			}
		}
	}
	JOINT RightUpLeg
	{
		OFFSET	-0.124023	-0.065224	 0.008373
		CHANNELS 3 Zrotation Xrotation Yrotation
		JOINT RightLeg
		{
			OFFSET	 0.000000	 0.570047	 0.000000
			CHANNELS 3 Zrotation Xrotation Yrotation
			JOINT RightFoot
			{
				OFFSET	 0.000000	 0.544354	 0.000000
				CHANNELS 3 Zrotation Xrotation Yrotation
				JOINT RightToeBase
				{
					OFFSET	 0.000000	 0.207540	 0.000000
					CHANNELS 3 Zrotation Xrotation Yrotation
					End Site
					{
						OFFSET	 0.000000	 0.207540	 0.000000
					}
				}
			}
		}
	}
	JOINT Spine
	{
		OFFSET	 0.000184	 0.117403	 0.007763
		CHANNELS 3 Zrotation Xrotation Yrotation
		JOINT Spine1
		{
			OFFSET	 0.000000	 0.137269	 0.000000
			CHANNELS 3 Zrotation Xrotation Yrotation
			JOINT Spine2
			{
				OFFSET	 0.000000	 0.156879	 0.000000
				CHANNELS 3 Zrotation Xrotation Yrotation
				JOINT LeftShoulder
				{
					OFFSET	 0.080501	 0.160143	 0.002496
					CHANNELS 3 Zrotation Xrotation Yrotation
					JOINT LeftArm
					{
						OFFSET	 0.000000	 0.164363	 0.000000
						CHANNELS 3 Zrotation Xrotation Yrotation
						JOINT LeftForeArm
						{
							OFFSET	 0.000000	 0.364576	 0.000000
							CHANNELS 3 Zrotation Xrotation Yrotation
							JOINT LeftHand
							{
								OFFSET	 0.000000	 0.360812	 0.000000
								CHANNELS 3 Zrotation Xrotation Yrotation
								JOINT LeftHandIndex1
								{
									OFFSET	 0.000000	 0.086006	 0.000000
									CHANNELS 3 Zrotation Xrotation Yrotation
									JOINT LeftHandIndex2
									{
										OFFSET	 0.000000	 0.047237	 0.000000
										CHANNELS 3 Zrotation Xrotation Yrotation
										JOINT LeftHandIndex3
										{
											OFFSET	-0.004284	 0.038165	 0.000551
											CHANNELS 3 Zrotation Xrotation Yrotation
											End Site
											{
												OFFSET	-0.004284	 0.038165	 0.000551
											}
										}
									}
								}
							}
						}
					}
				}
				JOINT Neck
				{
					OFFSET	 0.000000	 0.176489	 0.000000
					CHANNELS 3 Zrotation Xrotation Yrotation
					JOINT Head
					{
						OFFSET	 0.000000	 0.077941	 0.001747
						CHANNELS 3 Zrotation Xrotation Yrotation
						End Site
						{
							OFFSET	 0.000000	 0.077941	 0.001747
						}
					}
				}
				JOINT RightShoulder
				{
					OFFSET	-0.080363	 0.159706	-0.000306
					CHANNELS 3 Zrotation Xrotation Yrotation
					JOINT RightArm
					{
						OFFSET	 0.000000	 0.164196	 0.000000
						CHANNELS 3 Zrotation Xrotation Yrotation
						JOINT RightForeArm
						{
							OFFSET	 0.000000	 0.365611	 0.000000
							CHANNELS 3 Zrotation Xrotation Yrotation
							JOINT RightHand
							{
								OFFSET	 0.000000	 0.360648	 0.000000
								CHANNELS 3 Zrotation Xrotation Yrotation
								JOINT RightHandIndex1
								{
									OFFSET	 0.000000	 0.069977	 0.000000
									CHANNELS 3 Zrotation Xrotation Yrotation
									JOINT RightHandIndex2
									{
										OFFSET	 0.000000	 0.052305	 0.000000
										CHANNELS 3 Zrotation Xrotation Yrotation
										JOINT RightHandIndex3
										{
											OFFSET	 0.009002	 0.042196	 0.000782
											CHANNELS 3 Zrotation Xrotation Yrotation
											End Site
											{
												OFFSET	 0.009002	 0.042196	 0.000782
											}
										}
									}
								}
							}
						}
					}
				}
			}
		}
	}
}
MOTION
Frames:    5
Frame Time: 0.03333334
-0.047480	 1.227819	-1.290175	-3.342092	 0.920557	-174.045400	 177.547700	 8.555539	-23.393130	 4.774555	-31.929390	 6.435317	 9.120521	 82.966060	-2.180288	 1.517774	 31.308570	-2.814245	 163.482200	 24.228240	 28.362500	-6.236554	-55.196160	 6.011919	 7.246159	 75.100210	-5.417648	-1.670925	 33.165930	 2.887383	-1.408369	 8.101437	-0.822558	-0.928451	 1.239856	 0.290429	 0.911114	-3.025867	-3.823974	-121.357100	 7.491867	 94.069440	 20.735570	 44.209960	-4.364879	 5.007289	-0.258165	-0.072482	 21.406310	-4.455602	 10.521110	 4.633001	 18.885480	-1.659673	-5.863874	 21.496270	 2.376476	 5.332620	 4.365589	-0.168574	-0.169622	-5.015396	-0.138951	-2.079663	-2.087343	-3.898400	 118.414400	-0.053581	-90.807430	 3.642994	 49.080930	-8.047100	-4.983652	-0.195357	 0.050031	-6.780038	 7.703164	-5.285302	-2.406096	 25.754480	 1.319178	 15.794680	 44.749140	-11.751070	-8.529928	 23.751560	-1.211747
-0.049557	 1.219193	-1.352468	-3.293783	 0.612786	-173.776400	 177.723300	 7.752065	-22.974280	 4.866094	-32.618480	 6.709234	 12.970060	 84.414960	-6.525345	 1.537127	 31.548550	-2.823401	 164.120200	 17.658280	 27.990510	-6.314336	-55.640300	 6.221241	 49.908250	 84.754360	-43.739510	-1.679355	 33.266570	 2.891608	-1.331773	 7.703852	-0.863837	-2.330411	-8.832996	 0.295839	 1.573727	 1.605618	-3.951425	-121.351100	 7.732052	 94.188710	 10.816370	 47.126190	 3.310197	 4.926896	-0.251746	-0.072899	 26.184360	-6.077390	 12.268460	 4.664052	 18.987250	-1.676257	-5.863609	 21.585680	 2.386347	 5.336459	 4.455516	-0.166943	-0.174013	-5.035820	-0.118748	-2.004737	-2.191162	-3.908637	 118.381100	-0.195253	-90.741000	 11.063480	 49.230370	-13.277200	-4.912002	-0.190830	 0.050210	-4.434446	 8.236315	-6.742055	-2.294458	 24.917530	 1.260124	 15.588360	 43.932130	-11.430150	-8.532573	 22.911470	-1.155986
-0.050865	 1.214209	-1.438297	-3.169121	 1.666725	-173.322400	 178.036300	 3.513759	-22.105320	 4.689613	-31.667290	 7.092196	 24.350450	 85.918270	-18.972620	 1.570961	 31.965290	-2.839585	 168.150200	-1.327976	 26.280750	-4.163347	-43.994760	 8.391356	 154.319100	 78.119440	-140.852000	-1.694038	 33.441350	 2.899001	-1.819972	 4.253765	-0.771437	-4.271368	-22.289240	 0.073364	 2.468158	 7.583449	-4.222819	-121.341800	 8.149224	 94.396000	-13.211750	 48.956320	 22.489560	 4.884524	-0.245649	-0.073078	 35.383730	-8.152433	 15.813890	 4.718095	 19.163950	-1.705222	-5.863188	 21.740940	 2.403502	 5.343121	 4.611685	-0.164125	-0.181621	-5.071292	-0.083666	-1.874605	-2.371669	-3.925985	 118.323700	-0.441382	-90.625780	 26.712360	 47.355170	-24.302820	-4.896364	-0.187196	 0.050387	 0.050670	 9.302160	-9.654269	-2.104464	 23.463220	 1.162666	 15.251170	 42.510820	-10.892200	-8.535044	 21.451920	-1.059995
-0.048699	 1.232479	-1.522996	-2.926586	 7.969046	-172.792000	 177.570400	-14.446770	-20.584020	 2.070071	-15.244100	 6.799116	 18.974490	 80.293680	-15.177050	 1.625172	 32.625510	-2.865976	 179.317400	-40.736720	 27.688830	-0.353534	-4.691177	 11.138390	 172.743300	 71.863240	-151.401600	-1.717417	 33.718240	 2.910852	-3.591640	-5.106867	-0.589853	-5.388411	-27.893220	 0.388412	 3.040298	 9.820229	-4.507751	-121.330300	 8.810174	 94.724690	-48.481990	 38.815320	 49.888130	 4.972729	-0.243943	-0.072773	 51.689810	-10.236560	 21.117280	 4.804025	 19.443830	-1.751534	-5.862622	 21.986910	 2.430715	 5.353662	 4.859095	-0.159696	-0.193631	-5.127498	-0.028093	-1.668368	-2.657601	-3.952740	 118.233800	-0.831550	-90.443750	 47.978970	 39.606810	-37.695390	-5.056811	-0.188750	 0.049820	 7.107596	 10.882340	-14.932970	-1.812820	 21.158080	 1.020869	 14.767480	 40.254100	-10.085830	-8.533609	 19.139040	-0.909846
-0.044416	 1.262205	-1.576843	-3.098471	 17.863770	-172.017000	 178.299600	-31.994330	-19.138040	 0.652462	-4.910330	 7.290759	 20.423540	 76.102470	-18.068440	 1.730104	 33.877340	-2.918636	-175.439500	-59.588200	 28.518280	-0.311108	-4.130243	 13.066060	-172.039700	 50.139240	-156.725000	-1.747321	 34.069920	 2.926158	-5.633832	-8.289597	-0.852691	-6.169044	-28.688920	 0.750643	 3.449230	 9.968184	-4.740827	-121.313800	 9.549886	 95.092250	-67.981510	 22.128460	 63.570120	 5.087263	-0.242423	-0.072241	 70.652660	-13.358810	 25.727300	 4.915766	 19.772660	-1.810216	-5.862087	 22.296530	 2.465036	 5.367351	 5.180901	-0.154003	-0.205680	-5.190580	 0.035604	-1.434035	-2.964886	-3.949766	 118.153100	-1.282865	-90.234620	 61.001420	 30.820280	-43.205090	-5.310242	-0.193027	 0.048945	 13.470070	 11.979330	-21.225800	-1.495561	 18.366360	 0.878394	 14.257230	 37.524540	-9.178199	-8.523514	 16.351090	-0.731322
